<svg xmlns="http://www.w3.org/2000/svg" width="15" height="15" fill="none" xmlns:v="https://vecta.io/nano"><path fill-rule="evenodd" d="M4.5 1a.5.5 0 0 1 .5.5V2h5v-.5a.5.5 0 1 1 1 0V2h1.5A1.5 1.5 0 0 1 14 3.5v9a1.5 1.5 0 0 1-1.5 1.5h-10A1.5 1.5 0 0 1 1 12.5v-9A1.5 1.5 0 0 1 2.5 2H4v-.5a.5.5 0 0 1 .5-.5zM10 3v.5a.5.5 0 1 0 1 0V3h1.5a.5.5 0 0 1 .5.5V5H2V3.5a.5.5 0 0 1 .5-.5H4v.5a.5.5 0 1 0 1 0V3h5zM2 6v6.5a.5.5 0 0 0 .5.5h10a.5.5 0 0 0 .5-.5V6H2zm5 1.5a.5.5 0 1 1 1 0 .5.5 0 1 1-1 0zM9.5 7a.5.5 0 1 0 0 1 .5.5 0 1 0 0-1zm1.5.5a.5.5 0 1 1 1 0 .5.5 0 1 1-1 0zm.5 1.5a.5.5 0 1 0 0 1 .5.5 0 1 0 0-1zM9 9.5a.5.5 0 1 1 1 0 .5.5 0 1 1-1 0zM7.5 9a.5.5 0 1 0 0 1 .5.5 0 1 0 0-1zM5 9.5a.5.5 0 1 1 1 0 .5.5 0 1 1-1 0zM3.5 9a.5.5 0 1 0 0 1 .5.5 0 1 0 0-1zM3 11.5a.5.5 0 1 1 1 0 .5.5 0 1 1-1 0zm2.5-.5a.5.5 0 1 0 0 1 .5.5 0 1 0 0-1zm1.5.5a.5.5 0 1 1 1 0 .5.5 0 1 1-1 0zm2.5-.5a.5.5 0 1 0 0 1 .5.5 0 1 0 0-1z" fill="#000"/></svg>