<svg width="644" height="24" viewBox="0 0 644 24" fill="none" xmlns="http://www.w3.org/2000/svg">
<line x1="0.5" y1="11.5" x2="306.5" y2="11.5" stroke="black" stroke-linecap="round" stroke-linejoin="round" stroke-dasharray="10 5"/>
<path d="M331.75 12C331.75 13.2337 330.734 14.25 329.5 14.25H323.992L321.18 20.5545L320.992 21H317.406L318.156 14.25H316.773L315.485 16.1722L315.273 16.5H312.086L312.273 15.609L313 12L312.273 8.39025L312.086 7.5H315.273L315.485 7.8285L316.773 9.75L318.156 9.75L317.406 3H320.991L321.179 3.4455L323.992 9.75H329.5C330.734 9.75 331.75 10.7662 331.75 12ZM330.25 12C330.25 11.5755 329.924 11.25 329.5 11.25H323.008L322.82 10.8045L320.008 4.5H319.094L319.844 11.25L315.953 11.25L315.743 10.9215L314.452 9H313.913L314.476 11.8597L314.523 12L314.476 12.141L313.913 15H314.452L315.742 13.0778L315.952 12.75L319.843 12.75L319.093 19.5H320.007L322.82 13.1955L323.007 12.75H329.5C329.924 12.75 330.25 12.4245 330.25 12Z" fill="black"/>
<line x1="337.5" y1="11.5" x2="643.5" y2="11.5" stroke="black" stroke-linecap="round" stroke-linejoin="round"/>
</svg>
