<?xml version="1.0" encoding="UTF-8"?>
<!-- This file is generated by icon-builder -->
<svg xmlns="http://www.w3.org/2000/svg" xmlns:xlink="http://www.w3.org/1999/xlink" width="0" height="0">
<defs>
<symbol viewBox="0 0 24 24" fill="none" stroke="currentColor" stroke-width="2" stroke-linecap="round" stroke-linejoin="round" id="alert-triangle"> <path d="m21.73 18-8-14a2 2 0 0 0-3.48 0l-8 14A2 2 0 0 0 4 21h16a2 2 0 0 0 1.73-3Z" ></path> <path d="M12 9v4" ></path> <path d="M12 17h.01" ></path>
</symbol>
<symbol viewBox="0 0 24 24" fill="none" stroke="currentColor" stroke-width="2" stroke-linecap="round" stroke-linejoin="round" id="archive"> <rect width="20" height="5" x="2" y="3" rx="1" ></rect> <path d="M4 8v11a2 2 0 0 0 2 2h12a2 2 0 0 0 2-2V8" ></path> <path d="M10 12h4" ></path>
</symbol>
<symbol viewBox="0 0 24 24" fill="none" stroke="currentColor" stroke-width="2" stroke-linecap="round" stroke-linejoin="round" id="armchair"> <path d="M19 9V6a2 2 0 0 0-2-2H7a2 2 0 0 0-2 2v3" ></path> <path d="M3 16a2 2 0 0 0 2 2h14a2 2 0 0 0 2-2v-5a2 2 0 0 0-4 0v2H7v-2a2 2 0 0 0-4 0Z" ></path> <path d="M5 18v2" ></path> <path d="M19 18v2" ></path>
</symbol>
<symbol viewBox="0 0 15 15" fill="none" id="arrow-left"> <path fill-rule="evenodd" clip-rule="evenodd" d="M6.85355 3.14645C7.04882 3.34171 7.04882 3.65829 6.85355 3.85355L3.70711 7H12.5C12.7761 7 13 7.22386 13 7.5C13 7.77614 12.7761 8 12.5 8H3.70711L6.85355 11.1464C7.04882 11.3417 7.04882 11.6583 6.85355 11.8536C6.65829 12.0488 6.34171 12.0488 6.14645 11.8536L2.14645 7.85355C1.95118 7.65829 1.95118 7.34171 2.14645 7.14645L6.14645 3.14645C6.34171 2.95118 6.65829 2.95118 6.85355 3.14645Z" fill="currentColor" ></path>
</symbol>
<symbol viewBox="0 0 15 15" fill="none" id="arrow-right"> <path fill-rule="evenodd" clip-rule="evenodd" d="M8.14645 3.14645C8.34171 2.95118 8.65829 2.95118 8.85355 3.14645L12.8536 7.14645C13.0488 7.34171 13.0488 7.65829 12.8536 7.85355L8.85355 11.8536C8.65829 12.0488 8.34171 12.0488 8.14645 11.8536C7.95118 11.6583 7.95118 11.3417 8.14645 11.1464L11.2929 8H2.5C2.22386 8 2 7.77614 2 7.5C2 7.22386 2.22386 7 2.5 7H11.2929L8.14645 3.85355C7.95118 3.65829 7.95118 3.34171 8.14645 3.14645Z" fill="currentColor" ></path>
</symbol>
<symbol viewBox="0 0 24 24" fill="none" stroke="currentColor" stroke-width="2" stroke-linecap="round" stroke-linejoin="round" id="banknote"> <rect width="20" height="12" x="2" y="6" rx="2" ></rect> <circle cx="12" cy="12" r="2" ></circle> <path d="M6 12h.01M18 12h.01" ></path>
</symbol>
<symbol viewBox="0 0 24 24" fill="none" stroke="currentColor" stroke-width="2" stroke-linecap="round" stroke-linejoin="round" id="bell"> <path d="M6 8a6 6 0 0 1 12 0c0 7 3 9 3 9H3s3-2 3-9" ></path> <path d="M10.3 21a1.94 1.94 0 0 0 3.4 0" ></path>
</symbol>
<symbol viewBox="0 0 24 24" fill="none" stroke="currentColor" stroke-width="2" stroke-linecap="round" stroke-linejoin="round" id="book-marked"> <path d="M4 19.5v-15A2.5 2.5 0 0 1 6.5 2H20v20H6.5a2.5 2.5 0 0 1 0-5H20" ></path> <polyline points="10 2 10 10 13 7 16 10 16 2" ></polyline>
</symbol>
<symbol fill="none" xmlns:v="https://vecta.io/nano" id="calendar"><path fill-rule="evenodd" d="M4.5 1a.5.5 0 0 1 .5.5V2h5v-.5a.5.5 0 1 1 1 0V2h1.5A1.5 1.5 0 0 1 14 3.5v9a1.5 1.5 0 0 1-1.5 1.5h-10A1.5 1.5 0 0 1 1 12.5v-9A1.5 1.5 0 0 1 2.5 2H4v-.5a.5.5 0 0 1 .5-.5zM10 3v.5a.5.5 0 1 0 1 0V3h1.5a.5.5 0 0 1 .5.5V5H2V3.5a.5.5 0 0 1 .5-.5H4v.5a.5.5 0 1 0 1 0V3h5zM2 6v6.5a.5.5 0 0 0 .5.5h10a.5.5 0 0 0 .5-.5V6H2zm5 1.5a.5.5 0 1 1 1 0 .5.5 0 1 1-1 0zM9.5 7a.5.5 0 1 0 0 1 .5.5 0 1 0 0-1zm1.5.5a.5.5 0 1 1 1 0 .5.5 0 1 1-1 0zm.5 1.5a.5.5 0 1 0 0 1 .5.5 0 1 0 0-1zM9 9.5a.5.5 0 1 1 1 0 .5.5 0 1 1-1 0zM7.5 9a.5.5 0 1 0 0 1 .5.5 0 1 0 0-1zM5 9.5a.5.5 0 1 1 1 0 .5.5 0 1 1-1 0zM3.5 9a.5.5 0 1 0 0 1 .5.5 0 1 0 0-1zM3 11.5a.5.5 0 1 1 1 0 .5.5 0 1 1-1 0zm2.5-.5a.5.5 0 1 0 0 1 .5.5 0 1 0 0-1zm1.5.5a.5.5 0 1 1 1 0 .5.5 0 1 1-1 0zm2.5-.5a.5.5 0 1 0 0 1 .5.5 0 1 0 0-1z" fill="#000"></path></symbol>
<symbol viewBox="0 0 15 15" fill="none" id="caret-down"> <path fill-rule="evenodd" clip-rule="evenodd" d="M4.18179 6.18181C4.35753 6.00608 4.64245 6.00608 4.81819 6.18181L7.49999 8.86362L10.1818 6.18181C10.3575 6.00608 10.6424 6.00608 10.8182 6.18181C10.9939 6.35755 10.9939 6.64247 10.8182 6.81821L7.81819 9.81821C7.73379 9.9026 7.61934 9.95001 7.49999 9.95001C7.38064 9.95001 7.26618 9.9026 7.18179 9.81821L4.18179 6.81821C4.00605 6.64247 4.00605 6.35755 4.18179 6.18181Z" fill="currentColor" ></path>
</symbol>
<symbol viewBox="0 0 15 15" fill="none" id="caret-left"> <path fill-rule="evenodd" clip-rule="evenodd" d="M8.81809 4.18179C8.99383 4.35753 8.99383 4.64245 8.81809 4.81819L6.13629 7.49999L8.81809 10.1818C8.99383 10.3575 8.99383 10.6424 8.81809 10.8182C8.64236 10.9939 8.35743 10.9939 8.1817 10.8182L5.1817 7.81819C5.09731 7.73379 5.0499 7.61933 5.0499 7.49999C5.0499 7.38064 5.09731 7.26618 5.1817 7.18179L8.1817 4.18179C8.35743 4.00605 8.64236 4.00605 8.81809 4.18179Z" fill="currentColor" ></path>
</symbol>
<symbol viewBox="0 0 15 15" fill="none" id="caret-right"> <path fill-rule="evenodd" clip-rule="evenodd" d="M6.18194 4.18185C6.35767 4.00611 6.6426 4.00611 6.81833 4.18185L9.81833 7.18185C9.90272 7.26624 9.95013 7.3807 9.95013 7.50005C9.95013 7.6194 9.90272 7.73386 9.81833 7.81825L6.81833 10.8182C6.6426 10.994 6.35767 10.994 6.18194 10.8182C6.0062 10.6425 6.0062 10.3576 6.18194 10.1819L8.86374 7.50005L6.18194 4.81825C6.0062 4.64251 6.0062 4.35759 6.18194 4.18185Z" fill="currentColor" ></path>
</symbol>
<symbol fill="none" xmlns:v="https://vecta.io/nano" id="caret-sort"><path fill-rule="evenodd" d="M4.932 5.432a.45.45 0 1 0 .636.636L7.5 4.136l1.932 1.932a.45.45 0 1 0 .636-.636l-2.25-2.25a.45.45 0 0 0-.636 0l-2.25 2.25zm5.136 4.136a.45.45 0 1 0-.636-.636L7.5 10.864 5.568 8.932a.45.45 0 1 0-.636.636l2.25 2.25a.45.45 0 0 0 .636 0l2.25-2.25z" fill="currentColor"></path></symbol>
<symbol viewBox="0 0 15 15" fill="none" id="caret-up"> <path fill-rule="evenodd" clip-rule="evenodd" d="M4.18179 8.81819C4.00605 8.64245 4.00605 8.35753 4.18179 8.18179L7.18179 5.18179C7.26618 5.0974 7.38064 5.04999 7.49999 5.04999C7.61933 5.04999 7.73379 5.0974 7.81819 5.18179L10.8182 8.18179C10.9939 8.35753 10.9939 8.64245 10.8182 8.81819C10.6424 8.99392 10.3575 8.99392 10.1818 8.81819L7.49999 6.13638L4.81819 8.81819C4.64245 8.99392 4.35753 8.99392 4.18179 8.81819Z" fill="currentColor" ></path>
</symbol>
<symbol viewBox="0 0 24 24" fill="none" stroke="currentColor" stroke-width="2" stroke-linecap="round" stroke-linejoin="round" id="check-check"> <path d="M18 6 7 17l-5-5" ></path> <path d="m22 10-7.5 7.5L13 16" ></path>
</symbol>
<symbol viewBox="0 0 24 24" fill="none" stroke="currentColor" stroke-width="2" stroke-linecap="round" stroke-linejoin="round" id="check-circle"> <path d="M22 11.08V12a10 10 0 1 1-5.93-9.14" ></path> <path d="m9 11 3 3L22 4" ></path>
</symbol>
<symbol viewBox="0 0 24 24" fill="none" stroke="currentColor" stroke-width="2" stroke-linecap="round" stroke-linejoin="round" id="check"> <path d="M20 6 9 17l-5-5" ></path>
</symbol>
<symbol viewBox="0 0 24 24" fill="none" stroke="currentColor" stroke-width="2" stroke-linecap="round" stroke-linejoin="round" id="chevron-down"> <path d="m6 9 6 6 6-6" ></path>
</symbol>
<symbol viewBox="0 0 24 24" fill="none" stroke="currentColor" stroke-width="2" stroke-linecap="round" stroke-linejoin="round" id="chevron-up"> <path d="m18 15-6-6-6 6" ></path>
</symbol>
<symbol viewBox="0 0 24 24" fill="none" stroke="currentColor" stroke-width="2" stroke-linecap="round" stroke-linejoin="round" id="chevrons-up-down"> <path d="m7 15 5 5 5-5" ></path> <path d="m7 9 5-5 5 5" ></path>
</symbol>
<symbol viewBox="0 0 24 24" fill="none" stroke="currentColor" stroke-width="2" stroke-linecap="round" stroke-linejoin="round" id="clock-5"> <circle cx="12" cy="12" r="10" ></circle> <polyline points="12 6 12 12 14.5 16" ></polyline>
</symbol>
<symbol viewBox="0 0 24 24" fill="none" stroke="currentColor" stroke-width="2" stroke-linecap="round" stroke-linejoin="round" id="copy"> <rect width="14" height="14" x="8" y="8" rx="2" ry="2" ></rect> <path d="M4 16c-1.1 0-2-.9-2-2V4c0-1.1.9-2 2-2h10c1.1 0 2 .9 2 2" ></path>
</symbol>
<symbol viewBox="0 0 24 24" fill="none" stroke="currentColor" stroke-width="2" stroke-linecap="round" stroke-linejoin="round" id="credit-card"> <rect width="20" height="14" x="2" y="5" rx="2" ></rect> <line x1="2" x2="22" y1="10" y2="10" ></line>
</symbol>
<symbol viewBox="0 0 15 15" fill="none" id="cross-1"> <path fill-rule="evenodd" clip-rule="evenodd" d="M12.8536 2.85355C13.0488 2.65829 13.0488 2.34171 12.8536 2.14645C12.6583 1.95118 12.3417 1.95118 12.1464 2.14645L7.5 6.79289L2.85355 2.14645C2.65829 1.95118 2.34171 1.95118 2.14645 2.14645C1.95118 2.34171 1.95118 2.65829 2.14645 2.85355L6.79289 7.5L2.14645 12.1464C1.95118 12.3417 1.95118 12.6583 2.14645 12.8536C2.34171 13.0488 2.65829 13.0488 2.85355 12.8536L7.5 8.20711L12.1464 12.8536C12.3417 13.0488 12.6583 13.0488 12.8536 12.8536C13.0488 12.6583 13.0488 12.3417 12.8536 12.1464L8.20711 7.5L12.8536 2.85355Z" fill="currentColor" ></path>
</symbol>
<symbol viewBox="0 0 24 24" fill="none" stroke="currentColor" stroke-width="2" stroke-linecap="round" stroke-linejoin="round" id="dot"> <circle cx="12.1" cy="12.1" r="1" ></circle>
</symbol>
<symbol viewBox="0 0 15 15" fill="none" id="dots-horizontal"> <path fill-rule="evenodd" clip-rule="evenodd" d="M3.625 7.5C3.625 8.12132 3.12132 8.625 2.5 8.625C1.87868 8.625 1.375 8.12132 1.375 7.5C1.375 6.87868 1.87868 6.375 2.5 6.375C3.12132 6.375 3.625 6.87868 3.625 7.5ZM8.625 7.5C8.625 8.12132 8.12132 8.625 7.5 8.625C6.87868 8.625 6.375 8.12132 6.375 7.5C6.375 6.87868 6.87868 6.375 7.5 6.375C8.12132 6.375 8.625 6.87868 8.625 7.5ZM12.5 8.625C13.1213 8.625 13.625 8.12132 13.625 7.5C13.625 6.87868 13.1213 6.375 12.5 6.375C11.8787 6.375 11.375 6.87868 11.375 7.5C11.375 8.12132 11.8787 8.625 12.5 8.625Z" fill="currentColor" ></path>
</symbol>
<symbol viewBox="0 0 24 24" fill="none" stroke="currentColor" stroke-width="2" stroke-linecap="round" stroke-linejoin="round" id="eye"> <path d="M2 12s3-7 10-7 10 7 10 7-3 7-10 7-10-7-10-7Z" ></path> <circle cx="12" cy="12" r="3" ></circle>
</symbol>
<symbol viewBox="0 0 24 24" fill="none" stroke="currentColor" stroke-width="2" stroke-linecap="round" stroke-linejoin="round" id="file-down"> <path d="M15 2H6a2 2 0 0 0-2 2v16a2 2 0 0 0 2 2h12a2 2 0 0 0 2-2V7Z" ></path> <path d="M14 2v4a2 2 0 0 0 2 2h4" ></path> <path d="M12 18v-6" ></path> <path d="m9 15 3 3 3-3" ></path>
</symbol>
<symbol viewBox="0 0 24 24" fill="none" stroke="currentColor" stroke-width="2" stroke-linecap="round" stroke-linejoin="round" id="file-line-chart"> <path d="M15 2H6a2 2 0 0 0-2 2v16a2 2 0 0 0 2 2h12a2 2 0 0 0 2-2V7Z" ></path> <path d="M14 2v4a2 2 0 0 0 2 2h4" ></path> <path d="m16 13-3.5 3.5-2-2L8 17" ></path>
</symbol>
<symbol viewBox="0 0 24 24" fill="none" stroke="currentColor" stroke-width="2" stroke-linecap="round" stroke-linejoin="round" id="file-pie-chart"> <path d="M16 22h2a2 2 0 0 0 2-2V7l-5-5H6a2 2 0 0 0-2 2v3" ></path> <path d="M14 2v4a2 2 0 0 0 2 2h4" ></path> <path d="M4 11.5a6.02 6.02 0 1 0 8.5 8.5" ></path> <path d="M14 16c0-3.3-2.7-6-6-6v6Z" ></path>
</symbol>
<symbol viewBox="0 0 24 24" fill="none" stroke="currentColor" stroke-width="2" stroke-linecap="round" stroke-linejoin="round" id="file-spreadsheet"> <path d="M15 2H6a2 2 0 0 0-2 2v16a2 2 0 0 0 2 2h12a2 2 0 0 0 2-2V7Z" ></path> <path d="M14 2v4a2 2 0 0 0 2 2h4" ></path> <path d="M8 13h2" ></path> <path d="M14 13h2" ></path> <path d="M8 17h2" ></path> <path d="M14 17h2" ></path>
</symbol>
<symbol viewBox="0 0 24 24" fill="none" stroke="currentColor" stroke-width="2" stroke-linecap="round" stroke-linejoin="round" id="filter"> <polygon points="22 3 2 3 10 12.46 10 19 14 21 14 12.46 22 3" ></polygon>
</symbol>
<symbol viewBox="0 0 644 24" fill="none" id="flight">
<line x1="0.5" y1="11.5" x2="306.5" y2="11.5" stroke="black" stroke-linecap="round" stroke-linejoin="round" stroke-dasharray="10 5"></line>
<path d="M331.75 12C331.75 13.2337 330.734 14.25 329.5 14.25H323.992L321.18 20.5545L320.992 21H317.406L318.156 14.25H316.773L315.485 16.1722L315.273 16.5H312.086L312.273 15.609L313 12L312.273 8.39025L312.086 7.5H315.273L315.485 7.8285L316.773 9.75L318.156 9.75L317.406 3H320.991L321.179 3.4455L323.992 9.75H329.5C330.734 9.75 331.75 10.7662 331.75 12ZM330.25 12C330.25 11.5755 329.924 11.25 329.5 11.25H323.008L322.82 10.8045L320.008 4.5H319.094L319.844 11.25L315.953 11.25L315.743 10.9215L314.452 9H313.913L314.476 11.8597L314.523 12L314.476 12.141L313.913 15H314.452L315.742 13.0778L315.952 12.75L319.843 12.75L319.093 19.5H320.007L322.82 13.1955L323.007 12.75H329.5C329.924 12.75 330.25 12.4245 330.25 12Z" fill="black"></path>
<line x1="337.5" y1="11.5" x2="643.5" y2="11.5" stroke="black" stroke-linecap="round" stroke-linejoin="round"></line>
</symbol>
<symbol viewBox="0 0 24 24" fill="none" stroke="currentColor" stroke-width="2" stroke-linecap="round" stroke-linejoin="round" id="gauge"> <path d="m12 14 4-4" ></path> <path d="M3.34 19a10 10 0 1 1 17.32 0" ></path>
</symbol>
<symbol fill="none" xmlns:v="https://vecta.io/nano" id="home"><path fill-rule="evenodd" d="M7.079.222a.6.6 0 0 1 .842 0l6.75 6.64a.6.6 0 0 1-.841.855L13 6.902V12.5a.5.5 0 0 1-.5.5h-10a.5.5 0 0 1-.5-.5V6.902l-.829.816a.6.6 0 0 1-.842-.855l6.75-6.64zM7.5 1.492L12 5.918V12h-2V8.5a.5.5 0 0 0-.5-.5h-3a.5.5 0 0 0-.5.5V12H3V5.918l4.5-4.427zM7 12h2V9H7v3z" fill="#000"></path></symbol>
<symbol fill="none" xmlns:v="https://vecta.io/nano" id="id-card"><path fill-rule="evenodd" d="M14 11V4H1v7h13zm1-7v7a1 1 0 0 1-1 1H1a1 1 0 0 1-1-1V4a1 1 0 0 1 1-1h13a1 1 0 0 1 1 1zM2 5.25A.25.25 0 0 1 2.25 5h3.5a.25.25 0 0 1 .25.25v4.5a.25.25 0 0 1-.25.25h-3.5A.25.25 0 0 1 2 9.75v-4.5zM7.5 7a.5.5 0 1 0 0 1h3a.5.5 0 1 0 0-1h-3zM7 9.5a.5.5 0 0 1 .5-.5h5a.5.5 0 1 1 0 1h-5a.5.5 0 0 1-.5-.5zM7.5 5a.5.5 0 1 0 0 1h4a.5.5 0 1 0 0-1h-4z" fill="#000"></path></symbol>
<symbol viewBox="0 0 24 24" fill="none" stroke="currentColor" stroke-width="2" stroke-linecap="round" stroke-linejoin="round" id="info"> <circle cx="12" cy="12" r="10" ></circle> <path d="M12 16v-4" ></path> <path d="M12 8h.01" ></path>
</symbol>
<symbol viewBox="0 0 24 24" fill="none" stroke="currentColor" stroke-width="2" stroke-linecap="round" stroke-linejoin="round" id="key"> <circle cx="7.5" cy="15.5" r="5.5" ></circle> <path d="m21 2-9.6 9.6" ></path> <path d="m15.5 7.5 3 3L22 7l-3-3" ></path>
</symbol>
<symbol viewBox="0 0 24 24" fill="none" stroke="currentColor" stroke-width="2" stroke-linecap="round" stroke-linejoin="round" id="layout-grid"> <rect width="7" height="7" x="3" y="3" rx="1" ></rect> <rect width="7" height="7" x="14" y="3" rx="1" ></rect> <rect width="7" height="7" x="14" y="14" rx="1" ></rect> <rect width="7" height="7" x="3" y="14" rx="1" ></rect>
</symbol>
<symbol viewBox="0 0 24 24" fill="none" stroke="currentColor" stroke-width="2" stroke-linecap="round" stroke-linejoin="round" id="layout-list"> <rect width="7" height="7" x="3" y="3" rx="1" ></rect> <rect width="7" height="7" x="3" y="14" rx="1" ></rect> <path d="M14 4h7" ></path> <path d="M14 9h7" ></path> <path d="M14 15h7" ></path> <path d="M14 20h7" ></path>
</symbol>
<symbol viewBox="0 0 24 24" fill="none" stroke="currentColor" stroke-width="2" stroke-linecap="round" stroke-linejoin="round" id="log-out"> <path d="M9 21H5a2 2 0 0 1-2-2V5a2 2 0 0 1 2-2h4" ></path> <polyline points="16 17 21 12 16 7" ></polyline> <line x1="21" x2="9" y1="12" y2="12" ></line>
</symbol>
<symbol viewBox="0 0 15 15" fill="none" id="magnifying-glass"> <path fill-rule="evenodd" clip-rule="evenodd" d="M10 6.5C10 8.433 8.433 10 6.5 10C4.567 10 3 8.433 3 6.5C3 4.567 4.567 3 6.5 3C8.433 3 10 4.567 10 6.5ZM9.30884 10.0159C8.53901 10.6318 7.56251 11 6.5 11C4.01472 11 2 8.98528 2 6.5C2 4.01472 4.01472 2 6.5 2C8.98528 2 11 4.01472 11 6.5C11 7.56251 10.6318 8.53901 10.0159 9.30884L12.8536 12.1464C13.0488 12.3417 13.0488 12.6583 12.8536 12.8536C12.6583 13.0488 12.3417 13.0488 12.1464 12.8536L9.30884 10.0159Z" fill="currentColor" ></path>
</symbol>
<symbol viewBox="0 0 24 24" fill="none" stroke="currentColor" stroke-width="2" stroke-linecap="round" stroke-linejoin="round" id="map-pin"> <path d="M20 10c0 6-8 12-8 12s-8-6-8-12a8 8 0 0 1 16 0Z" ></path> <circle cx="12" cy="10" r="3" ></circle>
</symbol>
<symbol viewBox="0 0 24 24" fill="none" stroke="currentColor" stroke-width="2" stroke-linecap="round" stroke-linejoin="round" id="menu"> <line x1="4" x2="20" y1="12" y2="12" ></line> <line x1="4" x2="20" y1="6" y2="6" ></line> <line x1="4" x2="20" y1="18" y2="18" ></line>
</symbol>
<symbol viewBox="0 0 24 24" fill="none" stroke="currentColor" stroke-width="2" stroke-linecap="round" stroke-linejoin="round" id="minus"> <path d="M5 12h14" ></path>
</symbol>
<symbol viewBox="0 0 24 24" fill="none" stroke="currentColor" stroke-width="2" stroke-linecap="round" stroke-linejoin="round" id="pencil-line"> <path d="M12 20h9" ></path> <path d="M16.5 3.5a2.12 2.12 0 0 1 3 3L7 19l-4 1 1-4Z" ></path> <path d="m15 5 3 3" ></path>
</symbol>
<symbol viewBox="0 0 24 24" fill="none" stroke="currentColor" stroke-width="2" stroke-linecap="round" stroke-linejoin="round" id="pencil"> <path d="M17 3a2.85 2.83 0 1 1 4 4L7.5 20.5 2 22l1.5-5.5Z" ></path> <path d="m15 5 4 4" ></path>
</symbol>
<symbol viewBox="0 0 24 24" fill="none" stroke="currentColor" stroke-width="2" stroke-linecap="round" stroke-linejoin="round" id="plane-takeoff"> <path d="M2 22h20" ></path> <path d="M6.36 17.4 4 17l-2-4 1.1-.55a2 2 0 0 1 1.8 0l.17.1a2 2 0 0 0 1.8 0L8 12 5 6l.9-.45a2 2 0 0 1 2.09.2l4.02 3a2 2 0 0 0 2.1.2l4.19-2.06a2.41 2.41 0 0 1 1.73-.17L21 7a1.4 1.4 0 0 1 .87 1.99l-.38.76c-.23.46-.6.84-1.07 1.08L7.58 17.2a2 2 0 0 1-1.22.18Z" ></path>
</symbol>
<symbol viewBox="0 0 24 24" fill="none" stroke="currentColor" stroke-width="2" stroke-linecap="round" stroke-linejoin="round" id="plane"> <path d="M17.8 19.2 16 11l3.5-3.5C21 6 21.5 4 21 3c-1-.5-3 0-4.5 1.5L13 8 4.8 6.2c-.5-.1-.9.1-1.1.5l-.3.5c-.2.5-.1 1 .3 1.3L9 12l-2 3H4l-1 1 3 2 2 3 1-1v-3l3-2 3.5 5.3c.3.4.8.5 1.3.3l.5-.2c.4-.3.6-.7.5-1.2z" ></path>
</symbol>
<symbol viewBox="0 0 24 24" fill="none" stroke="currentColor" stroke-width="2" stroke-linecap="round" stroke-linejoin="round" id="plus"> <path d="M5 12h14" ></path> <path d="M12 5v14" ></path>
</symbol>
<symbol viewBox="0 0 24 24" fill="none" stroke="currentColor" stroke-width="2" stroke-linecap="round" stroke-linejoin="round" id="refresh-cw"> <path d="M3 12a9 9 0 0 1 9-9 9.75 9.75 0 0 1 6.74 2.74L21 8" ></path> <path d="M21 3v5h-5" ></path> <path d="M21 12a9 9 0 0 1-9 9 9.75 9.75 0 0 1-6.74-2.74L3 16" ></path> <path d="M8 16H3v5" ></path>
</symbol>
<symbol viewBox="0 0 24 24" fill="none" stroke="currentColor" stroke-width="2" stroke-linecap="round" stroke-linejoin="round" id="route"> <circle cx="6" cy="19" r="3" ></circle> <path d="M9 19h8.5a3.5 3.5 0 0 0 0-7h-11a3.5 3.5 0 0 1 0-7H15" ></path> <circle cx="18" cy="5" r="3" ></circle>
</symbol>
<symbol viewBox="0 0 24 24" fill="none" stroke="currentColor" stroke-width="2" stroke-linecap="round" stroke-linejoin="round" id="scale"> <path d="m16 16 3-8 3 8c-.87.65-1.92 1-3 1s-2.13-.35-3-1Z" ></path> <path d="m2 16 3-8 3 8c-.87.65-1.92 1-3 1s-2.13-.35-3-1Z" ></path> <path d="M7 21h10" ></path> <path d="M12 3v18" ></path> <path d="M3 7h2c2 0 5-1 7-2 2 1 5 2 7 2h2" ></path>
</symbol>
<symbol viewBox="0 0 24 24" fill="none" stroke="currentColor" stroke-width="2" stroke-linecap="round" stroke-linejoin="round" id="send"> <path d="m22 2-7 20-4-9-9-4Z" ></path> <path d="M22 2 11 13" ></path>
</symbol>
<symbol viewBox="0 0 24 24" fill="none" stroke="currentColor" stroke-width="2" stroke-linecap="round" stroke-linejoin="round" id="server"> <rect width="20" height="8" x="2" y="2" rx="2" ry="2" ></rect> <rect width="20" height="8" x="2" y="14" rx="2" ry="2" ></rect> <line x1="6" x2="6.01" y1="6" y2="6" ></line> <line x1="6" x2="6.01" y1="18" y2="18" ></line>
</symbol>
<symbol viewBox="0 0 24 24" fill="none" stroke="currentColor" stroke-width="2" stroke-linecap="round" stroke-linejoin="round" xmlns:v="https://vecta.io/nano" id="settings"><path d="M12.22 2h-.44a2 2 0 0 0-2 2v.18a2 2 0 0 1-1 1.73l-.43.25a2 2 0 0 1-2 0l-.15-.08a2 2 0 0 0-2.73.73l-.22.38a2 2 0 0 0 .73 2.73l.15.1a2 2 0 0 1 1 1.72v.51a2 2 0 0 1-1 1.74l-.15.09a2 2 0 0 0-.73 2.73l.22.38a2 2 0 0 0 2.73.73l.15-.08a2 2 0 0 1 2 0l.43.25a2 2 0 0 1 1 1.73V20a2 2 0 0 0 2 2h.44a2 2 0 0 0 2-2v-.18a2 2 0 0 1 1-1.73l.43-.25a2 2 0 0 1 2 0l.15.08a2 2 0 0 0 2.73-.73l.22-.39a2 2 0 0 0-.73-2.73l-.15-.08a2 2 0 0 1-1-1.74v-.5a2 2 0 0 1 1-1.74l.15-.09a2 2 0 0 0 .73-2.73l-.22-.38a2 2 0 0 0-2.73-.73l-.15.08a2 2 0 0 1-2 0l-.43-.25a2 2 0 0 1-1-1.73V4a2 2 0 0 0-2-2z"></path><circle cx="12" cy="12" r="3"></circle></symbol>
<symbol viewBox="0 0 307 1" fill="none" id="solid-line">
<line x1="0.5" y1="0.5" x2="306.5" y2="0.5" stroke="black" stroke-linecap="round" stroke-linejoin="round"></line>
</symbol>
<symbol viewBox="0 0 15 15" fill="none" id="square"> <path fill-rule="evenodd" clip-rule="evenodd" d="M1 1H1.5H13.5H14V1.5V13.5V14H13.5H1.5H1V13.5V1.5V1ZM2 2V13H13V2H2Z" fill="currentColor" ></path>
</symbol>
<symbol viewBox="0 0 24 24" fill="none" stroke="currentColor" stroke-width="2" stroke-linecap="round" stroke-linejoin="round" id="star"> <polygon points="12 2 15.09 8.26 22 9.27 17 14.14 18.18 21.02 12 17.77 5.82 21.02 7 14.14 2 9.27 8.91 8.26 12 2" ></polygon>
</symbol>
<symbol viewBox="0 0 307 1" fill="none" id="striped-line">
<line x1="0.5" y1="0.5" x2="306.5" y2="0.5" stroke="black" stroke-linecap="round" stroke-linejoin="round" stroke-dasharray="10 5"></line>
</symbol>
<symbol viewBox="0 0 24 24" fill="none" stroke="currentColor" stroke-width="2" stroke-linecap="round" stroke-linejoin="round" id="ticket"> <path d="M2 9a3 3 0 0 1 0 6v2a2 2 0 0 0 2 2h16a2 2 0 0 0 2-2v-2a3 3 0 0 1 0-6V7a2 2 0 0 0-2-2H4a2 2 0 0 0-2 2Z" ></path> <path d="M13 5v2" ></path> <path d="M13 17v2" ></path> <path d="M13 11v2" ></path>
</symbol>
<symbol viewBox="0 0 24 24" fill="none" stroke="currentColor" stroke-width="2" stroke-linecap="round" stroke-linejoin="round" id="trash"> <path d="M3 6h18" ></path> <path d="M19 6v14c0 1-1 2-2 2H7c-1 0-2-1-2-2V6" ></path> <path d="M8 6V4c0-1 1-2 2-2h4c1 0 2 1 2 2v2" ></path>
</symbol>
<symbol viewBox="0 0 24 24" fill="none" stroke="currentColor" stroke-width="2" stroke-linecap="round" stroke-linejoin="round" id="upload-cloud"> <path d="M4 14.899A7 7 0 1 1 15.71 8h1.79a4.5 4.5 0 0 1 2.5 8.242" ></path> <path d="M12 12v9" ></path> <path d="m16 16-4-4-4 4" ></path>
</symbol>
<symbol fill="none" xmlns:v="https://vecta.io/nano" id="upload"><path fill-rule="evenodd" d="M7.818 1.182a.45.45 0 0 0-.636 0l-3 3a.45.45 0 1 0 .636.636L7.05 2.586V9.5a.45.45 0 1 0 .9 0V2.586l2.232 2.232a.45.45 0 0 0 .636-.636l-3-3zM2.5 10a.5.5 0 0 1 .5.5V12c0 .554.446 1 .996 1h7.005A1 1 0 0 0 12 12v-1.5a.5.5 0 1 1 1 0V12a2 2 0 0 1-1.999 2H3.996C2.89 14 2 13.103 2 12v-1.5a.5.5 0 0 1 .5-.5z" fill="#000"></path></symbol>
<symbol viewBox="0 0 24 24" fill="none" stroke="currentColor" stroke-width="2" stroke-linecap="round" stroke-linejoin="round" id="user-cog"> <circle cx="18" cy="15" r="3" ></circle> <circle cx="9" cy="7" r="4" ></circle> <path d="M10 15H6a4 4 0 0 0-4 4v2" ></path> <path d="m21.7 16.4-.9-.3" ></path> <path d="m15.2 13.9-.9-.3" ></path> <path d="m16.6 18.7.3-.9" ></path> <path d="m19.1 12.2.3-.9" ></path> <path d="m19.6 18.7-.4-1" ></path> <path d="m16.8 12.3-.4-1" ></path> <path d="m14.3 16.6 1-.4" ></path> <path d="m20.7 13.8 1-.4" ></path>
</symbol>
<symbol viewBox="0 0 24 24" fill="none" stroke="currentColor" stroke-width="2" stroke-linecap="round" stroke-linejoin="round" id="user"> <path d="M19 21v-2a4 4 0 0 0-4-4H9a4 4 0 0 0-4 4v2" ></path> <circle cx="12" cy="7" r="4" ></circle>
</symbol>
<symbol viewBox="0 0 24 24" fill="none" stroke="currentColor" stroke-width="2" stroke-linecap="round" stroke-linejoin="round" id="users"> <path d="M16 21v-2a4 4 0 0 0-4-4H6a4 4 0 0 0-4 4v2" ></path> <circle cx="9" cy="7" r="4" ></circle> <path d="M22 21v-2a4 4 0 0 0-3-3.87" ></path> <path d="M16 3.13a4 4 0 0 1 0 7.75" ></path>
</symbol>
<symbol viewBox="0 0 24 24" fill="none" stroke="currentColor" stroke-width="2" stroke-linecap="round" stroke-linejoin="round" id="x-circle"> <circle cx="12" cy="12" r="10" ></circle> <path d="m15 9-6 6" ></path> <path d="m9 9 6 6" ></path>
</symbol>
<symbol viewBox="0 0 24 24" fill="none" stroke="currentColor" stroke-width="2" stroke-linecap="round" stroke-linejoin="round" id="x"> <path d="M18 6 6 18" ></path> <path d="m6 6 12 12" ></path>
</symbol>
</defs>
</svg>
